<mxfile host="app.diagrams.net" modified="2022-09-04T23:56:22.872Z" agent="5.0 (Windows NT 10.0; Win64; x64) AppleWebKit/537.36 (KHTML, like Gecko) Chrome/105.0.0.0 Safari/537.36" etag="7K3ltRppirbaByPRW_oM" version="20.2.8" type="github">
  <diagram id="Qo8TgP-sQs6RT2eDeETX" name="Page-1">
    <mxGraphModel dx="1422" dy="705" grid="1" gridSize="10" guides="1" tooltips="1" connect="1" arrows="1" fold="1" page="1" pageScale="1" pageWidth="850" pageHeight="1100" math="0" shadow="0">
      <root>
        <mxCell id="0" />
        <mxCell id="1" parent="0" />
        <mxCell id="91ljh7Bfl0TCZdJxeP6n-8" value="" style="rounded=0;whiteSpace=wrap;html=1;fontSize=18;" vertex="1" parent="1">
          <mxGeometry x="95" y="280" width="285" height="380" as="geometry" />
        </mxCell>
        <mxCell id="91ljh7Bfl0TCZdJxeP6n-4" value="&lt;font style=&quot;font-size: 18px;&quot;&gt;Date&lt;/font&gt;" style="rounded=0;whiteSpace=wrap;html=1;" vertex="1" parent="1">
          <mxGeometry x="130" y="500" width="210" height="60" as="geometry" />
        </mxCell>
        <mxCell id="91ljh7Bfl0TCZdJxeP6n-6" value="&lt;font style=&quot;font-size: 18px;&quot;&gt;Amount&lt;/font&gt;" style="rounded=0;whiteSpace=wrap;html=1;" vertex="1" parent="1">
          <mxGeometry x="130" y="380" width="210" height="60" as="geometry" />
        </mxCell>
        <mxCell id="91ljh7Bfl0TCZdJxeP6n-7" value="&lt;font style=&quot;font-size: 18px;&quot;&gt;Id&lt;/font&gt;" style="rounded=0;whiteSpace=wrap;html=1;" vertex="1" parent="1">
          <mxGeometry x="130" y="320" width="210" height="60" as="geometry" />
        </mxCell>
        <mxCell id="91ljh7Bfl0TCZdJxeP6n-13" style="edgeStyle=orthogonalEdgeStyle;rounded=0;orthogonalLoop=1;jettySize=auto;html=1;fontSize=18;entryX=0.5;entryY=0;entryDx=0;entryDy=0;" edge="1" parent="1" source="91ljh7Bfl0TCZdJxeP6n-1" target="91ljh7Bfl0TCZdJxeP6n-3">
          <mxGeometry relative="1" as="geometry">
            <mxPoint x="360" y="110" as="targetPoint" />
            <Array as="points">
              <mxPoint x="185" y="10" />
              <mxPoint x="495" y="10" />
            </Array>
          </mxGeometry>
        </mxCell>
        <mxCell id="91ljh7Bfl0TCZdJxeP6n-1" value="&lt;font style=&quot;font-size: 18px;&quot;&gt;Income&lt;/font&gt;" style="rounded=0;whiteSpace=wrap;html=1;" vertex="1" parent="1">
          <mxGeometry x="95" y="40" width="210" height="60" as="geometry" />
        </mxCell>
        <mxCell id="91ljh7Bfl0TCZdJxeP6n-15" style="edgeStyle=orthogonalEdgeStyle;rounded=0;orthogonalLoop=1;jettySize=auto;html=1;entryX=0.5;entryY=1;entryDx=0;entryDy=0;fontSize=18;" edge="1" parent="1" source="91ljh7Bfl0TCZdJxeP6n-2" target="91ljh7Bfl0TCZdJxeP6n-3">
          <mxGeometry relative="1" as="geometry">
            <Array as="points">
              <mxPoint x="185" y="230" />
              <mxPoint x="495" y="230" />
            </Array>
          </mxGeometry>
        </mxCell>
        <mxCell id="91ljh7Bfl0TCZdJxeP6n-2" value="&lt;font style=&quot;font-size: 18px;&quot;&gt;Expense&lt;/font&gt;" style="rounded=0;whiteSpace=wrap;html=1;" vertex="1" parent="1">
          <mxGeometry x="95" y="140" width="210" height="60" as="geometry" />
        </mxCell>
        <mxCell id="91ljh7Bfl0TCZdJxeP6n-3" value="&lt;span style=&quot;font-size: 18px;&quot;&gt;Balance&lt;br&gt;(Income - Expense)&lt;br&gt;&lt;/span&gt;" style="rounded=0;whiteSpace=wrap;html=1;" vertex="1" parent="1">
          <mxGeometry x="390" y="40" width="210" height="160" as="geometry" />
        </mxCell>
        <mxCell id="91ljh7Bfl0TCZdJxeP6n-9" value="&lt;font style=&quot;font-size: 18px;&quot;&gt;Category&lt;/font&gt;" style="rounded=0;whiteSpace=wrap;html=1;" vertex="1" parent="1">
          <mxGeometry x="130" y="560" width="210" height="60" as="geometry" />
        </mxCell>
        <mxCell id="91ljh7Bfl0TCZdJxeP6n-10" value="&lt;font style=&quot;font-size: 18px;&quot;&gt;Type&lt;/font&gt;" style="rounded=0;whiteSpace=wrap;html=1;" vertex="1" parent="1">
          <mxGeometry x="130" y="440" width="210" height="60" as="geometry" />
        </mxCell>
      </root>
    </mxGraphModel>
  </diagram>
</mxfile>
